PathFileType  4	(X/Y/Z) C:\Users\antoi\Documents\MyRepositories\mobilecap\ResultsAnalysis
DataRate	CameraRate	NumFrames	NumMarkers	Units	OrigDataRate	OrigDataStartFrame	OrigNumFrames
100.0	100.0	7	51	mm	100.0	50	131
Frame#	Time	r_knee			r_shank_antsup			r_ankle			r_calc			r_5meta			r_toe			L_knee			L_shank_antsup			L_ankle			L_calc			L_5meta			L_toe			r_sh2			r_sh3			r_sh4			L_sh2			L_sh3			r_thigh1			r_thigh2			r_thigh3			r_thigh4			r_thigh5			L_thigh1			L_thigh2			L_thigh3			L_thigh4			r.ASIS			r.PSIS			L.ASIS			L.PSIS			C7			R_Shoulder			L_Shoulder			R_Sternum			L_Sternum			R_humerus			R_elbow_med			R_elbow_lat			R_forearm			R_wrist_radius			R_wrist_ulna			L_humerus			L_elbow_med			L_elbow_lat			L_forearm			L_wrist_radius			L_wrist_ulna			R_HJC			L_HJC			R_HJC_reg			L_HJC_reg			
		X1	Y1	Z1	X2	Y2	Z2	X3	Y3	Z3	X4	Y4	Z4	X5	Y5	Z5	X6	Y6	Z6	X7	Y7	Z7	X8	Y8	Z8	X9	Y9	Z9	X10	Y10	Z10	X11	Y11	Z11	X12	Y12	Z12	X13	Y13	Z13	X14	Y14	Z14	X15	Y15	Z15	X16	Y16	Z16	X17	Y17	Z17	X18	Y18	Z18	X19	Y19	Z19	X20	Y20	Z20	X21	Y21	Z21	X22	Y22	Z22	X23	Y23	Z23	X24	Y24	Z24	X25	Y25	Z25	X26	Y26	Z26	X27	Y27	Z27	X28	Y28	Z28	X29	Y29	Z29	X30	Y30	Z30	X31	Y31	Z31	X32	Y32	Z32	X33	Y33	Z33	X34	Y34	Z34	X35	Y35	Z35	X36	Y36	Z36	X37	Y37	Z37	X38	Y38	Z38	X39	Y39	Z39	X40	Y40	Z40	X41	Y41	Z41	X42	Y42	Z42	X43	Y43	Z43	X44	Y44	Z44	X45	Y45	Z45	X46	Y46	Z46	X47	Y47	Z47	X48	Y48	Z48	X49	Y49	Z49	X50	Y50	Z50	X51	Y51	Z51	

50	0.49000000	310.57939	484.95682	-57.55050	335.48295	430.17428	-67.95252	190.23429	97.16477	-128.51541	132.80546	64.41407	-182.87652	310.69658	31.53458	-89.32730	356.75255	57.79288	-141.62134	589.57224	498.03757	-335.36195	648.57765	435.03343	-340.85110	730.78974	121.88629	-284.29273	690.92399	62.38647	-231.51611	867.10598	120.25755	-302.46725	892.40092	161.70221	-250.54754	310.68941	321.09984	-90.82802	266.78707	437.47695	-33.89553	238.61409	324.62167	-44.21533	563.83216	408.50857	-358.18333	610.43424	295.45977	-347.20833	486.41344	754.11790	-93.58496	461.27068	643.59258	-93.60395	435.88253	625.68510	-34.69870	413.51961	762.11087	-4.64792	391.53139	650.79107	-10.18779	505.22908	806.69582	-356.44442	560.62555	675.39271	-363.61568	401.62403	764.01881	-366.46747	453.11103	638.69140	-350.32181	488.11077	942.13107	-60.42131	301.39738	976.20334	-147.14751	504.60821	927.71579	-298.15072	302.36564	967.69016	-244.88745	373.78667	1447.45814	-200.72183	428.54208	1414.36075	-44.90590	427.56662	1388.08264	-363.63128	479.11333	1343.84294	-184.39172	479.66990	1339.69677	-223.12135	509.25338	1211.48109	57.07992	484.80397	1097.85403	53.46783	525.75098	1126.12400	98.05396	663.38103	1090.22785	66.72781	754.76665	1064.86570	20.14810	750.46845	1036.79478	55.38226	335.73087	1172.28245	-442.41814	258.92175	1091.87725	-391.49334	273.89167	1091.80743	-450.59105	285.35098	950.57926	-481.36577	288.24616	839.12656	-468.50612	248.38575	846.92224	-487.70364	415.91624	859.93268	-96.27472	414.50182	858.06773	-286.93056	421.46753	874.44700	-88.34574	423.02608	860.77070	-245.31040	
51	0.50000000	321.26469	482.98031	-58.04738	345.21637	427.41668	-68.72521	191.25940	98.18848	-128.63413	133.16607	65.45895	-182.95792	311.30449	31.85630	-89.18093	356.99596	57.37301	-141.64687	602.79922	495.50295	-335.82626	662.34034	433.30048	-341.12238	749.96909	121.52547	-283.16598	710.95111	61.32997	-230.37894	886.40232	122.28085	-300.72918	910.66319	164.31624	-248.83041	317.82417	319.10441	-91.53859	276.85387	436.19992	-34.24504	245.89954	323.90449	-44.43044	577.94465	405.34337	-358.12322	626.39433	293.03187	-346.64519	498.73651	751.45799	-93.45290	473.26766	641.01184	-93.60395	447.50778	623.19730	-34.83493	425.56801	759.51170	-4.64639	403.24228	648.41415	-10.42597	519.55201	804.52863	-356.48481	574.53262	673.11804	-363.74088	415.79248	761.94367	-367.01772	466.90980	636.59609	-350.85175	500.63233	939.66567	-60.04807	314.42105	973.35778	-147.58334	518.18998	925.04200	-298.14750	315.70348	964.67181	-245.25410	386.48547	1444.92198	-201.21291	440.84247	1411.69521	-45.25125	440.12415	1385.09889	-364.12870	491.93803	1341.05638	-184.68709	492.46688	1336.85241	-223.49782	522.65072	1209.64571	56.90896	499.47177	1095.63483	53.52965	539.91986	1124.59996	98.10409	678.14715	1091.56741	66.07847	769.76678	1068.46058	19.00506	766.28420	1040.05874	54.08296	347.52767	1169.39273	-442.36872	270.68194	1089.35057	-391.14664	285.43409	1089.11238	-450.19351	295.53412	948.10581	-481.63025	297.66960	836.57979	-469.34090	257.74906	844.72614	-487.96392	428.87321	857.29026	-96.24097	428.12399	855.25502	-286.90019	434.28637	871.85327	-88.12252	436.35270	857.86811	-245.35614	
52	0.51000000	332.91665	480.75439	-58.70921	355.85020	424.33973	-69.65819	192.42481	99.45938	-128.66898	133.63094	66.94417	-182.95954	312.32570	32.48720	-88.76132	357.31536	56.92954	-141.63350	616.51083	493.35671	-335.88344	676.15471	431.27964	-341.21603	765.42856	120.07225	-282.40334	726.89901	59.54616	-229.42535	901.78761	121.80224	-299.81679	925.78841	164.12013	-248.11456	325.62412	316.91079	-92.38134	287.90306	434.75192	-34.73428	254.00080	323.28694	-44.66749	591.79834	402.83117	-357.62322	640.79257	290.78416	-345.82300	511.41338	748.89057	-93.44719	485.77149	638.31601	-93.72734	459.78557	620.71599	-35.06546	437.92990	756.93256	-4.89155	415.49884	645.95481	-10.82666	533.85879	802.72429	-356.73035	588.73386	671.30432	-363.81104	430.00119	759.91636	-367.42602	481.05015	634.67661	-351.18509	513.38149	937.17503	-59.82104	327.55944	970.61622	-148.03585	531.83890	922.49926	-298.18994	329.15564	961.89411	-245.64963	399.30595	1442.50077	-201.78852	453.22573	1409.16465	-45.65430	452.62565	1382.22167	-364.72949	504.80285	1338.41776	-185.08633	505.34478	1334.17024	-223.97362	535.72225	1207.67720	56.61377	513.65448	1093.30496	53.37027	553.53378	1122.90751	97.99155	692.28586	1092.37355	65.42923	784.05849	1071.25955	17.97719	781.38496	1042.55975	52.87117	359.81576	1166.33618	-442.31833	283.05929	1086.52597	-390.79700	297.63564	1086.14391	-449.79309	306.48996	945.40054	-481.84200	307.81886	833.80958	-470.10946	267.88554	842.30578	-488.23697	441.94781	854.68490	-96.34200	441.78987	852.62082	-287.00340	447.25727	869.21068	-88.12053	449.83163	855.14210	-245.56318	
53	0.52000000	345.44254	478.33683	-59.50422	367.26658	421.01521	-70.69192	193.77657	101.02643	-128.62950	134.24224	69.01104	-182.86084	313.47230	33.25225	-88.17403	357.74671	56.42935	-141.56492	630.72806	491.54867	-335.53470	690.13781	428.94398	-341.05957	777.39721	117.49392	-282.00251	738.98063	57.06739	-228.66326	913.54652	118.78453	-299.66369	938.04828	161.09401	-248.30847	333.99351	314.58677	-93.30514	299.82724	433.20341	-35.34696	262.81871	322.86634	-44.90124	605.55553	400.92456	-356.82819	653.81481	288.66350	-344.89508	524.46530	746.43077	-93.56964	498.75104	635.59341	-94.00452	472.66390	618.25731	-35.42483	450.61427	754.38825	-5.36001	428.28549	643.45100	-11.39711	548.05760	801.17374	-357.21701	603.13227	669.84692	-363.91049	444.14152	757.90483	-367.58961	495.46480	632.87139	-351.21890	526.39669	934.69249	-59.73046	340.86305	967.98546	-148.50029	545.59732	920.13841	-298.28627	342.76860	959.35544	-246.07550	412.25019	1440.19737	-202.44959	465.73526	1406.80597	-46.14968	465.10242	1379.49037	-365.42825	517.72252	1335.96611	-185.59805	518.31284	1331.68345	-224.55141	548.46204	1205.60072	56.20514	527.25801	1090.91546	52.99560	566.57840	1121.05668	97.73526	705.78323	1092.64698	64.78927	797.63108	1073.25175	17.06744	795.78944	1044.28326	51.74413	372.59165	1163.17942	-442.26768	296.10035	1083.42862	-390.40695	310.47700	1082.99004	-449.39482	318.22731	942.52609	-481.99858	318.74328	830.87679	-470.80045	278.83144	839.71149	-488.51672	455.20294	852.13829	-96.58039	455.56262	850.19422	-287.24311	460.43299	866.55701	-88.32486	463.50934	852.61783	-245.92669	
54	0.53000000	358.74236	475.78755	-60.37483	379.35174	417.52044	-71.75412	195.37542	102.94996	-128.53061	135.05167	71.79426	-182.64511	314.49959	33.97516	-87.53981	358.31663	55.84517	-141.42378	645.38515	489.99500	-334.84519	704.29044	426.30327	-340.64458	786.39004	113.96030	-281.90664	747.68991	54.18257	-228.06957	922.23689	113.45902	-300.09667	947.90189	155.49862	-249.18263	342.84046	312.21093	-94.24230	312.51977	431.62162	-36.05209	272.22493	322.68620	-45.11174	619.29458	399.52558	-355.91048	665.68865	286.63512	-344.01248	537.90446	744.08248	-93.81968	512.21585	632.94336	-94.44706	486.09305	615.83016	-35.93611	463.64263	751.88428	-6.01270	441.59330	640.93447	-12.12664	562.11521	799.74779	-357.96973	617.62236	668.60760	-364.10757	458.15085	755.90401	-367.45063	510.05630	631.12410	-350.89855	539.69465	932.25373	-59.74624	354.37334	965.46890	-148.98059	559.51812	918.00042	-298.45135	356.58887	957.03439	-246.53353	425.30321	1438.00759	-203.20128	478.39558	1404.63385	-46.76842	477.60646	1376.92542	-366.22039	530.71303	1333.71873	-186.22719	531.38199	1329.40273	-225.23390	560.86557	1203.43021	55.69964	540.20194	1088.51163	52.42860	579.05101	1119.04884	97.36213	718.62752	1092.38295	64.16739	810.49186	1074.43056	16.27220	809.49853	1045.21497	50.69936	385.83113	1159.98225	-442.22323	309.82069	1080.10688	-389.95225	323.91364	1079.74001	-449.00296	330.73660	939.54428	-482.10429	330.48979	827.83818	-471.40954	290.62223	836.98868	-488.79178	468.69226	849.67036	-96.95085	469.51205	847.99172	-287.61433	473.84679	863.93816	-88.70022	477.42778	850.29977	-246.43842	
55	0.54000000	372.72421	473.16167	-61.23987	392.02000	413.93017	-72.76969	197.29077	105.31081	-128.38085	136.12468	75.41431	-182.30297	315.28472	34.52737	-86.95656	359.03269	55.17105	-141.19685	660.31302	488.59250	-333.93655	718.50688	423.41504	-340.02676	793.16532	109.81052	-282.00318	753.76097	51.37710	-227.58236	928.62849	106.28016	-300.86233	955.97037	147.82486	-250.41404	352.10014	309.86758	-95.11703	325.89383	430.06759	-36.80572	282.10813	322.75573	-45.29338	633.00292	398.48678	-355.03700	676.69254	284.67420	-343.28324	551.73140	741.84503	-94.19492	526.19282	630.44379	-95.04300	500.04079	613.44444	-36.60079	477.04385	749.42835	-6.80699	455.41843	638.43343	-12.98611	576.06265	798.34062	-358.98952	632.10069	667.44647	-364.42615	472.02944	753.95336	-367.02941	524.68847	629.41065	-350.24716	553.28167	929.89522	-59.83463	368.11748	963.07707	-149.48520	573.65462	916.11247	-298.69719	370.65270	954.91353	-247.02282	438.44074	1435.93167	-204.05121	491.20912	1402.64947	-47.52614	490.20322	1374.53304	-367.10231	543.78661	1331.67676	-186.97256	544.56282	1327.32550	-226.02122	572.93225	1201.17464	55.11851	552.44360	1086.12462	51.70528	590.95661	1116.88397	96.90061	730.81104	1091.57275	63.57045	822.66315	1074.79069	15.58393	822.48663	1045.34136	49.73987	399.49687	1156.79645	-442.19764	324.19929	1076.63084	-389.42727	337.87850	1076.46876	-448.61428	343.98893	936.51146	-482.17014	343.09629	824.74236	-471.94124	303.28424	834.17636	-489.04341	482.45307	847.30426	-97.44190	483.69667	846.02368	-288.10564	487.51813	861.39977	-89.20864	491.62152	848.18614	-247.08823	
56	0.55000000	387.32134	470.50697	-62.00441	405.23016	410.31306	-73.66810	199.59900	108.21104	-128.17165	137.54756	79.97863	-181.83408	315.83285	34.84717	-86.48106	359.88238	54.42407	-140.88199	675.26062	487.24386	-332.96666	732.62498	420.38941	-339.30480	798.59737	105.47405	-282.14651	758.05123	49.18547	-227.11671	933.56876	97.83610	-301.67390	962.94018	138.69161	-251.64899	361.75130	307.64177	-95.85372	339.89427	428.60227	-37.55745	292.41263	323.08974	-45.45482	646.60748	397.63674	-354.34206	687.15550	282.76689	-342.75153	565.94103	739.72331	-94.69133	540.70546	628.13785	-95.75770	514.50154	611.11968	-37.39289	490.84856	747.03939	-7.70465	469.76002	635.97612	-13.93111	589.97924	796.90873	-360.23854	646.47700	666.25745	-364.84183	485.83916	752.14377	-366.43674	539.20131	627.76304	-349.37311	567.16027	927.65420	-59.97119	382.10926	960.83190	-150.01827	588.04566	914.49007	-299.02456	384.97492	952.99943	-247.53711	451.63780	1433.98490	-205.00660	504.15991	1400.85172	-48.41560	502.95964	1372.31416	-368.07038	556.95000	1329.83724	-187.82518	557.85851	1325.44722	-226.90841	584.66732	1198.84759	54.48491	563.98738	1083.77084	50.86548	602.30448	1114.57031	96.37246	742.33449	1090.20991	63.00243	834.17572	1074.32614	14.99536	834.70571	1044.65186	48.87664	413.54756	1153.66939	-442.20756	339.18608	1073.08010	-388.84168	352.29372	1073.22780	-448.21077	357.93767	933.47615	-482.21163	356.59000	821.63155	-472.40984	316.82471	831.30984	-489.24492	496.50211	845.06983	-98.03737	498.14792	844.30256	-288.70082	501.46371	858.97635	-89.82049	506.10902	846.28518	-247.86243	
